# xmcd
#
# Track frame offsets:
#	150
#	13992
#	22737
#	36003
#	47252
#
# Disc length: 1042 seconds
#
# Revision: 0
# Processed by: cddbd v1.4PL0 Copyright (c) Steve Scherf et al.
# Submitted via: dBpowerAMP V4.0
#
DISCID=2c041005
DTITLE=Jordan Cook Band - Transitions E.P.
DYEAR=2001
DGENRE=Blues
TTITLE0=Help Me
TTITLE1=This Time
TTITLE2=Dreaming
TTITLE3=Hype
TTITLE4=My Friend
EXTD=
EXTT0=
EXTT1=
EXTT2=
EXTT3=
EXTT4=
PLAYORDER=
